<svg width="118" height="118" viewBox="0 0 118 118" fill="none" xmlns="http://www.w3.org/2000/svg">
<path fill-rule="evenodd" clip-rule="evenodd" d="M111.019 0H0V8.01894C3.35623 8.27426 6 11.0784 6 14.5C6 17.9216 3.35623 20.7257 0 20.9811V25.7856C3.35623 26.0409 6 28.8451 6 32.2667C6 35.6883 3.35623 38.4924 0 38.7478V43.5523C3.35623 43.8076 6 46.6118 6 50.0334C6 53.455 3.35623 56.2591 0 56.5144V61.3192C3.35623 61.5745 6 64.3786 6 67.8002C6 71.2218 3.35623 74.026 0 74.2813V79.0854C3.35623 79.3408 6 82.1449 6 85.5665C6 88.9881 3.35623 91.7923 0 92.0476V96.8521C3.35623 97.1075 6 99.9116 6 103.333C6 106.755 3.35623 109.559 0 109.814V118H111.019C111.006 117.835 111 117.668 111 117.5C111 113.91 113.91 111 117.5 111C117.668 111 117.835 111.006 118 111.019V5.98106C117.835 5.99361 117.668 6 117.5 6C114.078 6 111.274 3.35623 111.019 0Z" fill="black"/>
</svg>
