<?xml version="1.0" encoding="UTF-8"?>
<svg xmlns="http://www.w3.org/2000/svg" viewBox="0 0 213 106">
<g>
  <rect width="213" height="106" fill="#e60012" />
  <path d="M163.88,61.5h6.3c5.8,0,10.5-4.7,10.5-10.5v-19.95c0-5.8-4.7-10.5-10.5-10.5h-6.34c-.15,0-.27.12-.27.27v40.38c0,.17.13.3.3.3M171.68,38.93c2.29,0,4.14,1.85,4.14,4.14s-1.85,4.14-4.14,4.14-4.14-1.85-4.14-4.14,1.85-4.14,4.14-4.14M159.18,20.55h-8.95c-5.8,0-10.5,4.7-10.5,10.5v19.95c0,5.8,4.7,10.5,10.5,10.5h8.95c.17,0,.3-.13.3-.3V20.85c0-.17-.13-.3-.3-.3M156.18,58.2h-5.95c-1.92,0-3.73-.75-5.09-2.11-1.36-1.36-2.11-3.17-2.11-5.09v-19.95c0-1.92.75-3.73,2.11-5.09,1.36-1.36,3.17-2.11,5.09-2.11h5.95v34.35ZM146.11,32.83c0,2.13,1.72,3.85,3.85,3.85s3.85-1.72,3.85-3.85-1.72-3.85-3.85-3.85-3.85,1.72-3.85,3.85M131.07,69.43l2.54,3.42h1.01v-5.11h-1.04v3.36l-2.52-3.36h-1.03v5.11h1.04v-3.42ZM156.03,67.74h-4.33v1.09h1.63v4.03h1.1v-4.03h1.6v-1.09ZM155.72,85.12h2.15v-9.65h-2.15v9.65ZM144.51,69.43l2.54,3.42h1.01v-5.11h-1.04v3.36l-2.52-3.36h-1.03v5.11h1.04v-3.42ZM149.36,82.47l-2.04-7h-1.71l-2.03,6.97-1.86-6.97h-2.1l2.73,9.65h2.32l1.8-6.36,1.79,6.36h2.33l2.74-9.65h-2.1l-1.86,7ZM134.04,79.26c-1.39-.23-2.29-.49-2.29-1.14,0-.75,1-1.04,2.35-1.04,1.25,0,2.51.48,2.95.67l.69-1.67c-.49-.19-2.03-.74-3.74-.74-2.08,0-4.3,1.02-4.3,2.9,0,1.53,1.08,2.31,3.84,2.78,1.95.34,3.02.52,2.99,1.36-.02.46-.37,1.24-2.57,1.24-1.77,0-3.01-.64-3.45-.9l-.91,1.65c.49.26,2.12,1.02,4.22,1.02,3.07,0,4.69-1.06,4.69-3.08,0-1.17-.39-2.38-4.47-3.05M139.61,67.74h-1.14v5.11h1.14v-5.11ZM172.58,72.85v-5.11h-1.04v3.36l-2.52-3.36h-1.03v5.11h1.04v-3.42l2.54,3.42h1.01ZM163.75,71.91h-2.94v-1.2h2.72v-.92h-2.72v-1.1h2.94v-.94h-3.98v5.11h3.98v-.95ZM190.97,83.96h.44v1.16h.28v-1.16h.43v-.28h-1.15v.28ZM187.68,67.57c-1.5,0-2.72,1.22-2.72,2.73s1.22,2.73,2.72,2.73,2.72-1.22,2.72-2.73-1.22-2.73-2.72-2.73M187.68,71.89c-.88,0-1.59-.71-1.59-1.59s.71-1.59,1.59-1.59,1.59.71,1.59,1.59-.71,1.59-1.59,1.59M193.58,83.68l-.36,1.05-.36-1.05h-.4v1.44h.26v-1.1l.38,1.09h0s.25.01.25.01h0s.38-1.1.38-1.1v1.1h.26v-1.44h-.4ZM188.03,79.27h-4.51v-3.8h-2v9.65h2v-3.85h4.51v3.85h2v-9.65h-2v3.8ZM160.22,77.52h3.08v7.6h2.08v-7.6h3.01v-2.05h-8.17v2.05ZM175.1,77.3c1.09,0,2.11.58,2.65,1.5l1.57-1.37c-.96-1.43-2.55-2.28-4.27-2.28-2.84,0-5.15,2.31-5.15,5.15s2.31,5.15,5.15,5.15c1.73,0,3.31-.85,4.27-2.28l-1.57-1.37c-.54.92-1.56,1.5-2.65,1.5-1.69,0-3.06-1.35-3.06-3s1.37-3,3.06-3M179.02,67.74h-2.11v5.11h2.11c1.45,0,2.63-1.15,2.63-2.56s-1.18-2.56-2.63-2.56M179.07,71.78h-1.12v-2.96h1.12c.82,0,1.48.67,1.48,1.48s-.66,1.48-1.48,1.48M21.28,67.92l2.78,3.75h1.11v-5.61h-1.14v3.68l-2.76-3.68h-1.13v5.61h1.14v-3.75ZM48.65,66.06h-4.75v1.19h1.79v4.42h1.21v-4.42h1.75v-1.19ZM48.3,85.12h2.35v-10.58h-2.35v10.58ZM36.01,67.92l2.78,3.75h1.11v-5.61h-1.14v3.68l-2.76-3.68h-1.13v5.61h1.14v-3.75ZM41.33,82.21l-2.24-7.68h-1.88l-2.23,7.65-2.03-7.65h-2.3l2.99,10.58h2.54l1.97-6.97,1.96,6.97h2.55l3.01-10.58h-2.3l-2.04,7.68ZM24.53,78.69c-1.53-.25-2.52-.53-2.52-1.25,0-.82,1.1-1.14,2.57-1.14,1.37,0,2.75.52,3.24.73l.75-1.83c-.53-.21-2.22-.81-4.1-.81-2.29,0-4.71,1.11-4.71,3.18,0,1.68,1.18,2.53,4.21,3.05,2.14.37,3.32.57,3.28,1.49-.02.51-.41,1.36-2.82,1.36-1.94,0-3.3-.7-3.78-.99l-1,1.81c.53.28,2.32,1.12,4.63,1.12,3.37,0,5.14-1.17,5.14-3.37,0-1.28-.43-2.61-4.91-3.35M30.65,66.06h-1.25v5.61h1.25v-5.61ZM66.79,71.67v-5.61h-1.14v3.68l-2.76-3.68h-1.13v5.61h1.14v-3.75l2.79,3.75h1.11ZM57.11,70.63h-3.22v-1.32h2.98v-1.01h-2.98v-1.21h3.22v-1.03h-4.36v5.61h4.36v-1.04ZM86.96,83.85h.48v1.27h.31v-1.27h.47v-.3h-1.26v.3ZM83.35,65.87c-1.65,0-2.99,1.34-2.99,2.99s1.34,2.99,2.99,2.99,2.99-1.34,2.99-2.99-1.34-2.99-2.99-2.99M83.35,70.61c-.96,0-1.74-.78-1.74-1.75s.78-1.75,1.74-1.75,1.74.78,1.74,1.75-.78,1.75-1.74,1.75M89.82,83.54l-.4,1.15-.4-1.15h-.44v1.57h.28v-1.21l.41,1.19h0s.27.01.27.01h0s.41-1.21.41-1.21v1.21h.28v-1.57h-.44ZM83.73,78.71h-4.94v-4.17h-2.19v10.58h2.19v-4.22h4.94v4.22h2.19v-10.58h-2.19v4.17ZM53.24,76.78h3.38v8.33h2.28v-8.33h3.3v-2.25h-8.96v2.25ZM69.56,76.54c1.19,0,2.31.64,2.9,1.64l1.72-1.5c-1.05-1.57-2.79-2.5-4.69-2.5-3.11,0-5.65,2.53-5.65,5.65s2.53,5.65,5.65,5.65c1.89,0,3.63-.93,4.69-2.5l-1.72-1.5c-.6,1.01-1.71,1.64-2.9,1.64-1.85,0-3.36-1.48-3.36-3.29s1.51-3.29,3.36-3.29M73.85,66.06h-2.32v5.61h2.32c1.59,0,2.88-1.26,2.88-2.8s-1.29-2.8-2.88-2.8M73.91,70.49h-1.22v-3.25h1.22c.9,0,1.62.73,1.62,1.63s-.73,1.63-1.62,1.63M34.81,20.51h-8.26c-5.35,0-9.69,4.34-9.69,9.69v18.41c0,5.35,4.34,9.69,9.69,9.69h8.26c.15,0,.28-.12.28-.28V20.79c0-.15-.12-.28-.28-.28ZM32.04,55.25h-5.49c-1.77,0-3.44-.69-4.7-1.94-1.25-1.25-1.95-2.92-1.95-4.7v-18.41c0-1.78.69-3.44,1.94-4.7,1.25-1.25,2.92-1.95,4.7-1.95h5.49v31.69ZM26.3,28.3c1.96,0,3.55,1.59,3.55,3.55s-1.59,3.55-3.55,3.55-3.55-1.59-3.55-3.55,1.59-3.55,3.55-3.55ZM44.96,20.51h-5.85c-.14,0-.25.11-.25.25v37.26c0,.15.12.28.28.28h5.81c5.35,0,9.69-4.34,9.69-9.69v-18.41c0-5.35-4.34-9.69-9.69-9.69ZM46.34,45.11c-2.11,0-3.82-1.71-3.82-3.82s1.71-3.82,3.82-3.82,3.82,1.71,3.82,3.82-1.71,3.82-3.82,3.82ZM61.01,58.3v-6.49c.67-.55,3.21-2.73,5.89-5.04,2.41-2.08,4.82-4.16,7.28-6.18,1.85-1.52,5.37-4.32,5.48-7.06.13-3.22-2.15-5.31-5.57-5.31-2.03,0-4.42,1.13-5.87,2.36-1.47,1.25-3.3,2.82-3.3,2.82,0,0-5.35-5.8-5.35-5.8,4.54-5.09,9.42-7.67,14.51-7.67,10.84-.27,19.02,11.82,10.77,21.29-2.99,3.3-6.39,6.39-9.88,9.13h14.16v7.95h-28.13ZM107,98.6h-1V7.4h1v91.2Z" fill="#fff"/>
</g>
</svg>